<?xml version="1.0" encoding="UTF-8" standalone="no"?>
<svg
   id="svg28"
   version="1.1"
   viewBox="0 0 345.08126 64.371848"
   height="243.29517"
   width="1304.2441"
   xml:space="preserve"
   xmlns:xlink="http://www.w3.org/1999/xlink"
   xmlns="http://www.w3.org/2000/svg"
   xmlns:svg="http://www.w3.org/2000/svg"
   xmlns:rdf="http://www.w3.org/1999/02/22-rdf-syntax-ns#"
   xmlns:cc="http://creativecommons.org/ns#"
   xmlns:dc="http://purl.org/dc/elements/1.1/"><defs
     id="defs22"><linearGradient
       id="linearGradient19"><stop
         style="stop-color:#a7ffac;stop-opacity:1;"
         offset="0"
         id="stop19" /><stop
         style="stop-color:#e9ff80;stop-opacity:1;"
         offset="1"
         id="stop20" /></linearGradient><linearGradient
       xlink:href="#linearGradient19"
       id="linearGradient21"
       gradientUnits="userSpaceOnUse"
       x1="967.88477"
       y1="225.40135"
       x2="967.88477"
       y2="289.80426"
       gradientTransform="translate(642.12846,851.22596)" /></defs><metadata
     id="metadata25"><rdf:RDF><cc:Work
         rdf:about=""><dc:format>image/svg+xml</dc:format><dc:type
           rdf:resource="http://purl.org/dc/dcmitype/StillImage" /></cc:Work></rdf:RDF></metadata><g
     id="layer1"
     transform="translate(-1578.9937,-1076.6584)"><path
       id="path959-0-9-9"
       style="display:inline;fill:#fefefe;fill-opacity:1;stroke:#233028;stroke-width:1.24051;stroke-linecap:round;stroke-linejoin:round;stroke-miterlimit:4;stroke-dasharray:none;stroke-dashoffset:4.5206;stroke-opacity:1"
       d="m 1590.5775,1078.4573 -9.2522,46.4455 c -0.8508,4.3621 -0.1773,8.0306 2.0206,11.0059 2.1979,3.0006 5.3294,4.5012 9.3943,4.5012 3.9941,0 7.7042,-1.5258 11.1311,-4.5768 3.474,-3.0509 5.6483,-6.6943 6.5227,-10.9303 h -7.2673 c -0.4727,2.1936 -1.5598,4.0341 -3.2614,5.5217 -1.7252,1.4877 -3.5921,2.2318 -5.6009,2.2318 -2.0089,0 -3.5688,-0.7441 -4.6796,-2.2318 -1.0871,-1.5129 -1.4176,-3.3533 -0.9921,-5.5217 l 4.5725,-23.2227 h 21.8019 l 1.5955,-7.7536 h -21.8019 l 3.0489,-15.4692 z m 116.1358,0 -12.3718,61.9526 h 7.2672 l 6.1682,-30.9763 c 0.4727,-2.1936 1.5362,-4.0218 3.1905,-5.4841 1.7016,-1.513 3.5689,-2.2694 5.6014,-2.2694 2.0325,0 3.6041,0.7564 4.7147,2.2694 1.1108,1.4876 1.4534,3.3156 1.0279,5.4841 l -6.168,30.9763 h 7.2672 l 6.1681,-30.9763 c 0.8272,-4.236 0.2957,-7.8547 -1.5951,-10.8552 -1.8433,-3.1014 -4.6323,-4.6519 -8.3663,-4.6519 -3.3324,0 -6.499,1.3236 -9.5005,3.9711 l 3.8286,-19.4403 z m 77.4242,0 -9.2527,46.4455 c -0.8507,4.3621 -0.1768,8.0306 2.0211,11.0059 2.1979,3.0006 5.329,4.5012 9.3939,4.5012 3.994,0 7.7047,-1.5258 11.1315,-4.5768 3.4741,-3.0509 5.6483,-6.6943 6.5227,-10.9303 h -7.2673 c -0.4726,2.1936 -1.5598,4.0341 -3.2614,5.5217 -1.7252,1.4877 -3.5921,2.2318 -5.6009,2.2318 -2.0089,0 -3.5688,-0.7441 -4.6796,-2.2318 -1.0871,-1.5129 -1.418,-3.3533 -0.9926,-5.5217 l 4.573,-23.2227 h 21.8019 l 1.595,-7.7536 h -21.8014 l 3.0485,-15.4692 z m 38.7121,0 -12.3723,61.9526 h 7.2672 l 6.1687,-30.9763 c 0.4725,-2.1936 1.5357,-4.0218 3.19,-5.4841 1.7016,-1.513 3.5689,-2.2694 5.6014,-2.2694 2.0324,0 3.6039,0.7564 4.7147,2.2694 1.1108,1.4876 1.4533,3.3156 1.0279,5.4841 l -6.1681,30.9763 h 7.2673 l 6.1681,-30.9763 c 0.8272,-4.236 0.2956,-7.8547 -1.5951,-10.8552 -1.8433,-3.1014 -4.6324,-4.6519 -8.3664,-4.6519 -3.3323,0 -6.499,1.3236 -9.5004,3.9711 l 3.8286,-19.4403 z m -182.11,15.4692 c -4.0412,0 -7.787,1.5252 -11.2375,4.5763 -3.3795,2.9753 -5.5182,6.6192 -6.4163,10.9308 l -3.0488,15.4692 c -0.8508,4.3621 -0.1769,8.0306 2.021,11.0059 2.1979,3.0006 5.3289,4.5012 9.3938,4.5012 3.994,0 7.7047,-1.5258 11.1315,-4.5768 3.4741,-3.0509 5.6484,-6.6943 6.5229,-10.9303 h -7.2674 c -0.4726,2.1936 -1.5598,4.0341 -3.2614,5.5217 -1.7252,1.4877 -3.5921,2.2318 -5.601,2.2318 -2.0087,0 -3.5687,-0.7441 -4.6795,-2.2318 -1.0871,-1.5129 -1.418,-3.3533 -0.9927,-5.5217 l 0.8862,-4.6144 h 21.7663 l 2.1983,-10.8548 c 0.8035,-4.236 0.095,-7.8799 -2.127,-10.9308 -2.2215,-3.0511 -5.3179,-4.5763 -9.2884,-4.5763 z m 38.7122,0 c -4.0413,0 -7.7871,1.5252 -11.2375,4.5763 -3.3796,2.9753 -5.5182,6.6192 -6.4163,10.9308 l -3.0488,15.4692 c -0.8509,4.3621 -0.1774,8.0306 2.0204,11.0059 2.1979,3.0006 5.3295,4.5012 9.3944,4.5012 4.0176,0 7.7162,-1.5006 11.0958,-4.5012 3.4741,-3.0509 5.6604,-6.7195 6.5584,-11.0059 h -7.2673 c -0.4726,2.1936 -1.5597,4.0341 -3.2614,5.5217 -1.7252,1.4877 -3.5925,2.2318 -5.6013,2.2318 -2.0088,0 -3.5683,-0.7441 -4.6791,-2.2318 -1.0872,-1.5129 -1.4181,-3.3533 -0.9927,-5.5217 l 3.0488,-15.4692 c 0.4727,-2.1936 1.5359,-4.0218 3.1901,-5.4841 1.7017,-1.513 3.569,-2.2694 5.6015,-2.2694 2.0325,0 3.6039,0.7564 4.7147,2.2694 1.1108,1.4876 1.4532,3.3156 1.0279,5.4841 h 7.2673 c 0.8035,-4.236 0.094,-7.8799 -2.1271,-10.9308 -2.2215,-3.0511 -5.3174,-4.5763 -9.2878,-4.5763 z m 77.4242,0 c -3.9705,0 -7.7046,1.5252 -11.2024,4.5763 -3.4977,3.0761 -5.6484,6.72 -6.4519,10.9308 h 7.2672 c 0.4727,-2.1936 1.5363,-4.0218 3.1906,-5.4841 1.7016,-1.513 3.5685,-2.2694 5.601,-2.2694 2.0324,0 3.6039,0.7564 4.7147,2.2694 1.1108,1.4876 1.4537,3.3156 1.0283,5.4841 l -1.3825,7.0349 c -1.9616,-2.6224 -4.6202,-3.9336 -7.9762,-3.9336 -3.7104,0 -7.1021,1.3364 -10.1744,4.0092 -3.0014,2.7483 -4.8919,6.0515 -5.6718,9.9093 -0.7799,3.9587 -0.2007,7.2746 1.7372,9.9473 1.9852,2.6728 4.8208,4.0092 8.5077,4.0092 3.3559,0 6.5466,-1.3112 9.5716,-3.9335 l -0.7802,3.9335 h 7.2673 l 6.1686,-30.9763 c 0.8035,-4.236 0.094,-7.8799 -2.127,-10.9308 -2.2215,-3.0511 -5.3175,-4.5763 -9.2878,-4.5763 z m 116.1358,0 c -4.0414,0 -7.7872,1.5252 -11.2376,4.5763 -3.3796,2.9753 -5.5188,6.6192 -6.4168,10.9308 l -3.0483,15.4692 c -0.8509,4.3621 -0.1774,8.0306 2.0205,11.0059 2.1978,3.0006 5.3294,4.5012 9.3943,4.5012 4.0176,0 7.7163,-1.5006 11.0958,-4.5012 3.4741,-3.0509 5.6599,-6.7195 6.558,-11.0059 l 3.0489,-15.4692 c 0.8035,-4.236 0.094,-7.8799 -2.1271,-10.9308 -2.2215,-3.0511 -5.3174,-4.5763 -9.2877,-4.5763 z m 38.712,0 c -4.0413,0 -7.7875,1.5252 -11.238,4.5763 -3.3795,2.9753 -5.5182,6.6192 -6.4162,10.9308 l -6.1682,30.9763 h 7.2673 l 6.1681,-30.9763 c 0.4727,-2.1936 1.5362,-4.0218 3.1906,-5.4841 1.7015,-1.513 3.5684,-2.2694 5.6009,-2.2694 2.0324,0 3.6039,0.7564 4.7147,2.2694 1.1108,1.4876 1.4538,3.3156 1.0283,5.4841 l -6.1686,30.9763 h 7.2674 l 6.1685,-30.9763 c 0.8035,-4.236 0.095,-7.8799 -2.127,-10.9308 -2.2216,-3.0511 -5.3174,-4.5763 -9.2878,-4.5763 z m -272.5792,7.7536 c 2.0325,0 3.6039,0.7564 4.7148,2.2694 1.1108,1.4876 1.4538,3.3156 1.0284,5.4841 l -0.9575,4.6519 h -14.499 l 0.9219,-4.6519 c 0.4725,-2.1936 1.5361,-4.0218 3.1905,-5.4841 1.7015,-1.513 3.5684,-2.2694 5.6009,-2.2694 z m 232.2716,0 c 2.0324,0 3.6044,0.7564 4.7152,2.2694 1.1108,1.4876 1.4532,3.3156 1.0279,5.4841 l -3.0489,15.4692 c -0.4727,2.1936 -1.5598,4.0341 -3.2614,5.5217 -1.7252,1.4877 -3.5921,2.2318 -5.6009,2.2318 -2.0088,0 -3.5689,-0.7441 -4.6795,-2.2318 -1.0872,-1.5129 -1.4177,-3.3533 -0.9923,-5.5217 l 3.0484,-15.4692 c 0.4727,-2.1936 1.5363,-4.0218 3.1905,-5.4841 1.7017,-1.513 3.5686,-2.2694 5.601,-2.2694 z m -119.8227,18.6083 c 1.8198,0 3.3442,0.5046 4.5731,1.5131 1.3471,1.2103 1.832,2.7608 1.4538,4.6519 -0.4018,1.9668 -1.5008,3.5177 -3.297,4.6523 -1.6543,1.0339 -3.3913,1.5506 -5.2111,1.5506 -1.8197,0 -3.3205,-0.5167 -4.5022,-1.5506 -1.3944,-1.1599 -1.9023,-2.7108 -1.5242,-4.6523 0.4017,-1.8911 1.5125,-3.4416 3.3323,-4.6519 1.5833,-1.0085 3.3084,-1.5131 5.1753,-1.5131 z" /><text
       xml:space="preserve"
       style="font-style:normal;font-variant:normal;font-weight:normal;font-stretch:normal;font-size:71.8048px;line-height:1.25;font-family:'SF Eccentric Opus Shaded';-inkscape-font-specification:'SF Eccentric Opus Shaded, Normal';font-variant-ligatures:normal;font-variant-caps:normal;font-variant-numeric:normal;font-variant-east-asian:normal;letter-spacing:-2.62888px;display:none;fill:url(#linearGradient21);fill-opacity:1;stroke:none;stroke-width:1.79513"
       x="1574.5498"
       y="1135.9114"
       id="text869-7-7-4"><tspan
         id="tspan867-8-3-9"
         x="1574.5498"
         y="1135.9114"
         style="font-style:oblique;font-variant:normal;font-weight:normal;font-stretch:normal;font-size:71.8048px;font-family:'SF Eccentric Opus Shaded';-inkscape-font-specification:'SF Eccentric Opus Shaded, Oblique';font-variant-ligatures:normal;font-variant-caps:normal;font-variant-numeric:normal;font-variant-east-asian:normal;fill:url(#linearGradient21);fill-opacity:1;stroke-width:1.79513">techathon</tspan></text></g></svg>
