<?xml version="1.0" encoding="UTF-8" standalone="no"?>
<svg
   id="svg28"
   version="1.1"
   viewBox="0 0 346.39862 65.694801"
   height="248.2953"
   width="1309.2231"
   xml:space="preserve"
   xmlns:xlink="http://www.w3.org/1999/xlink"
   xmlns="http://www.w3.org/2000/svg"
   xmlns:svg="http://www.w3.org/2000/svg"
   xmlns:rdf="http://www.w3.org/1999/02/22-rdf-syntax-ns#"
   xmlns:cc="http://creativecommons.org/ns#"
   xmlns:dc="http://purl.org/dc/elements/1.1/"><defs
     id="defs22"><linearGradient
       id="linearGradient19"><stop
         style="stop-color:#a7ffac;stop-opacity:1;"
         offset="0"
         id="stop19" /><stop
         style="stop-color:#e9ff80;stop-opacity:1;"
         offset="1"
         id="stop20" /></linearGradient><linearGradient
       xlink:href="#linearGradient19"
       id="linearGradient21"
       gradientUnits="userSpaceOnUse"
       x1="967.88477"
       y1="225.40135"
       x2="967.88477"
       y2="289.80426"
       gradientTransform="translate(-936.20375,-224.77097)" /></defs><metadata
     id="metadata25"><rdf:RDF><cc:Work
         rdf:about=""><dc:format>image/svg+xml</dc:format><dc:type
           rdf:resource="http://purl.org/dc/dcmitype/StillImage" /></cc:Work></rdf:RDF></metadata><path
     id="path959-0-9-9"
     style="fill:#374b3f;fill-opacity:1;stroke:none;stroke-width:1.1878;stroke-linecap:round;stroke-linejoin:round;stroke-miterlimit:4;stroke-dasharray:none;stroke-dashoffset:4.5206;stroke-opacity:1"
     d="M 12.113691,2.4339705 2.9629914,45.48887 c -0.8415,4.0437 -0.1754,7.4444 1.9984,10.2025 2.1738,2.7815 5.2708996,4.1726 9.2911996,4.1726 3.9503,0 7.6197,-1.4144 11.009,-4.2427 3.4359,-2.8282 5.5864,-6.2056 6.4512,-10.1324 h -7.1876 c -0.4675,2.0335 -1.5427,3.7396 -3.2256,5.1186 -1.7063,1.3791 -3.5527,2.0689 -5.5395,2.0689 -1.9868,0 -3.5296,-0.6898 -4.6282,-2.0689 -1.0752,-1.4024 -1.4020996,-3.1085 -0.9813,-5.1186 l 4.5224,-21.5274 h 21.5627 l 1.578,-7.1876 h -21.5627 l 3.0154,-14.3398995 z m 114.861799,0 -12.2361,57.4299995 h 7.1875 l 6.1005,-28.715 c 0.4675,-2.0335 1.5194,-3.7282 3.1555,-5.0838 1.683,-1.4025 3.5298,-2.1037 5.54,-2.1037 2.0102,0 3.5645,0.7012 4.663,2.1037 1.0986,1.379 1.4374,3.0736 1.0166,5.0838 l -6.1004,28.715 h 7.1875 l 6.1005,-28.715 c 0.8181,-3.9268 0.2924,-7.2813 -1.5776,-10.0628 -1.8231,-2.875 -4.5815,-4.3123 -8.2746,-4.3123 -3.2958,0 -6.4277,1.227 -9.3962,3.6812 l 3.7866,-18.0210995 z m 76.5749,0 -9.1512,43.0548995 c -0.8414,4.0437 -0.1749,7.4444 1.9989,10.2025 2.1738,2.7815 5.2705,4.1726 9.2908,4.1726 3.9502,0 7.6202,-1.4144 11.0094,-4.2427 3.436,-2.8282 5.5864,-6.2056 6.4512,-10.1324 h -7.1876 c -0.4674,2.0335 -1.5427,3.7396 -3.2256,5.1186 -1.7063,1.3791 -3.5527,2.0689 -5.5395,2.0689 -1.9868,0 -3.5296,-0.6898 -4.6282,-2.0689 -1.0752,-1.4024 -1.4025,-3.1085 -0.9818,-5.1186 l 4.5229,-21.5274 h 21.5627 l 1.5775,-7.1876 h -21.5622 l 3.015,-14.3398995 z m 38.2874,0 -12.2366,57.4299995 h 7.1875 l 6.101,-28.715 c 0.4674,-2.0335 1.5189,-3.7282 3.155,-5.0838 1.683,-1.4025 3.5298,-2.1037 5.54,-2.1037 2.0101,0 3.5644,0.7012 4.663,2.1037 1.0986,1.379 1.4373,3.0736 1.0166,5.0838 l -6.1004,28.715 h 7.1875 l 6.1005,-28.715 c 0.8181,-3.9268 0.2923,-7.2813 -1.5776,-10.0628 -1.8231,-2.875 -4.5816,-4.3123 -8.2746,-4.3123 -3.2958,0 -6.4277,1.227 -9.3962,3.6812 l 3.7866,-18.0210995 z M 61.725491,16.77387 c -3.9969,0 -7.7016,1.4139 -11.1142,4.2422 -3.3425,2.7581 -5.4577,6.136 -6.3459,10.1329 l -3.0154,14.3399 c -0.8415,4.0437 -0.175,7.4444 1.9988,10.2025 2.1738,2.7815 5.2705,4.1726 9.2908,4.1726 3.9502,0 7.6202,-1.4144 11.0094,-4.2427 3.436,-2.8282 5.5864,-6.2056 6.4513,-10.1324 h -7.1877 c -0.4674,2.0335 -1.5426,3.7396 -3.2256,5.1186 -1.7063,1.3791 -3.5527,2.0689 -5.5395,2.0689 -1.9867,0 -3.5296,-0.6898 -4.6282,-2.0689 -1.0752,-1.4024 -1.4025,-3.1085 -0.9818,-5.1186 l 0.8765,-4.2775 h 21.5275 l 2.1742,-10.0624 c 0.7947,-3.9268 0.094,-7.3047 -2.1037,-10.1329 -2.1971,-2.8283 -5.2596,-4.2422 -9.1865,-4.2422 z m 38.287499,0 c -3.996899,0 -7.701599,1.4139 -11.114199,4.2422 -3.3425,2.7581 -5.4577,6.136 -6.3459,10.1329 l -3.0154,14.3399 c -0.8415,4.0437 -0.1754,7.4444 1.9983,10.2025 2.1738,2.7815 5.271,4.1726 9.2913,4.1726 3.9736,0 7.6316,-1.3911 10.974099,-4.1726 3.436,-2.8282 5.5983,-6.229 6.4865,-10.2025 h -7.1876 c -0.4674,2.0335 -1.542599,3.7396 -3.225599,5.1186 -1.7063,1.3791 -3.5531,2.0689 -5.5399,2.0689 -1.9868,0 -3.5292,-0.6898 -4.6278,-2.0689 -1.0752,-1.4024 -1.4025,-3.1085 -0.9818,-5.1186 l 3.0154,-14.3399 c 0.4675,-2.0335 1.519,-3.7282 3.1551,-5.0838 1.683,-1.4025 3.5298,-2.1037 5.54,-2.1037 2.010199,0 3.564399,0.7012 4.662999,2.1037 1.0986,1.379 1.4373,3.0736 1.0166,5.0838 h 7.1876 c 0.7947,-3.9268 0.093,-7.3047 -2.1037,-10.1329 -2.1972,-2.8283 -5.2591,-4.2422 -9.186,-4.2422 z m 76.5749,0 c -3.9269,0 -7.6201,1.4139 -11.0795,4.2422 -3.4593,2.8516 -5.5864,6.2295 -6.3811,10.1329 h 7.1875 c 0.4675,-2.0335 1.5194,-3.7282 3.1556,-5.0838 1.6829,-1.4025 3.5293,-2.1037 5.5395,-2.1037 2.0101,0 3.5644,0.7012 4.663,2.1037 1.0986,1.379 1.4378,3.0736 1.017,5.0838 l -1.3673,6.5213 c -1.9401,-2.4309 -4.5695,-3.6464 -7.8887,-3.6464 -3.6697,0 -7.0242,1.2388 -10.0628,3.7165 -2.9685,2.5477 -4.8382,5.6097 -5.6096,9.1859 -0.7713,3.6697 -0.1985,6.7436 1.7182,9.2212 1.9634,2.4776 4.7679,3.7165 8.4143,3.7165 3.3191,0 6.4748,-1.2155 9.4666,-3.6464 l -0.7716,3.6464 h 7.1876 l 6.1009,-28.715 c 0.7947,-3.9268 0.093,-7.3047 -2.1037,-10.1329 -2.1971,-2.8283 -5.2591,-4.2422 -9.1859,-4.2422 z m 114.8618,0 c -3.997,0 -7.7017,1.4139 -11.1143,4.2422 -3.3425,2.7581 -5.4582,6.136 -6.3464,10.1329 l -3.0149,14.3399 c -0.8415,4.0437 -0.1754,7.4444 1.9984,10.2025 2.1737,2.7815 5.2709,4.1726 9.2912,4.1726 3.9736,0 7.6317,-1.3911 10.9741,-4.1726 3.436,-2.8282 5.5978,-6.229 6.4861,-10.2025 l 3.0154,-14.3399 c 0.7947,-3.9268 0.093,-7.3047 -2.1037,-10.1329 -2.1972,-2.8283 -5.2591,-4.2422 -9.1859,-4.2422 z m 38.2874,0 c -3.997,0 -7.7021,1.4139 -11.1147,4.2422 -3.3425,2.7581 -5.4577,6.136 -6.3459,10.1329 l -6.1005,28.715 h 7.1876 l 6.1004,-28.715 c 0.4675,-2.0335 1.5194,-3.7282 3.1556,-5.0838 1.6829,-1.4025 3.5293,-2.1037 5.5395,-2.1037 2.0101,0 3.5644,0.7012 4.663,2.1037 1.0986,1.379 1.4378,3.0736 1.017,5.0838 l -6.1009,28.715 h 7.1876 l 6.1009,-28.715 c 0.7947,-3.9268 0.094,-7.3047 -2.1037,-10.1329 -2.1972,-2.8283 -5.2591,-4.2422 -9.1859,-4.2422 z m -269.589099,7.1876 c 2.0102,0 3.5644,0.7012 4.6631,2.1037 1.0986,1.379 1.4378,3.0736 1.0171,5.0838 l -0.947,4.3123 h -14.34 l 0.9118,-4.3123 c 0.4674,-2.0335 1.5193,-3.7282 3.1555,-5.0838 1.6829,-1.4025 3.5293,-2.1037 5.5395,-2.1037 z m 229.723599,0 c 2.0102,0 3.5649,0.7012 4.6635,2.1037 1.0986,1.379 1.4373,3.0736 1.0166,5.0838 l -3.0154,14.3399 c -0.4675,2.0335 -1.5427,3.7396 -3.2256,5.1186 -1.7063,1.3791 -3.5527,2.0689 -5.5395,2.0689 -1.9868,0 -3.5297,-0.6898 -4.6282,-2.0689 -1.0752,-1.4024 -1.4021,-3.1085 -0.9814,-5.1186 l 3.015,-14.3399 c 0.4675,-2.0335 1.5194,-3.7282 3.1555,-5.0838 1.683,-1.4025 3.5294,-2.1037 5.5395,-2.1037 z m -118.5082,17.2499 c 1.7998,0 3.3075,0.4677 4.5229,1.4026 1.3323,1.122 1.8119,2.5593 1.4379,4.3123 -0.3974,1.8232 -1.4844,3.2609 -3.2609,4.3127 -1.6361,0.9584 -3.3541,1.4374 -5.1539,1.4374 -1.7998,0 -3.2841,-0.479 -4.4528,-1.4374 -1.3791,-1.0752 -1.8815,-2.5129 -1.5075,-4.3127 0.3973,-1.753 1.4959,-3.1903 3.2957,-4.3123 1.566,-0.9349 3.2721,-1.4026 5.1186,-1.4026 z" /><path
     style="font-style:oblique;font-size:71.8048px;line-height:1.25;font-family:'SF Eccentric Opus Shaded';-inkscape-font-specification:'SF Eccentric Opus Shaded, Oblique';letter-spacing:-2.62888px;fill:url(#linearGradient21);stroke:#374b3f;stroke-width:1.32292;stroke-dasharray:none;stroke-opacity:1;paint-order:stroke fill markers"
     d="m 36.011763,49.150737 c -0.467479,2.267274 -1.285568,4.324183 -2.454266,6.170726 -1.168698,1.823169 -2.699692,3.506094 -4.592983,5.048775 -1.916665,1.542681 -3.880077,2.699692 -5.890237,3.471033 -1.986787,0.794714 -4.113817,1.192071 -6.381091,1.192071 -4.511174,0 -7.9822069,-1.530994 -10.4130986,-4.592982 L 4.8425869,58.757434 C 4.3283598,58.266581 3.8258197,57.69392 3.3349666,57.039449 2.0727728,55.426646 1.2546842,53.696973 0.88070083,51.85043 0.53009145,49.980513 0.60021333,47.876857 1.0910665,45.539461 L 10.592581,0.66145998 h 10.763708 l 2.594509,3.82164232 -2.2439,10.5533417 h 18.161566 l 2.594511,3.821643 -2.2439,10.307915 H 18.691657 l -4.242373,19.984735 c -0.07012,0.280488 -0.128557,0.537602 -0.175305,0.771341 -0.02337,0.233739 -0.03506,0.479166 -0.03506,0.73628 0.280487,0.116869 0.572662,0.198678 0.876523,0.245426 0.303862,0.02337 0.631098,0.03506 0.981707,0.03506 0.747967,0 1.484246,-0.186992 2.208839,-0.560975 0.747967,-0.373983 1.425811,-0.876523 2.033534,-1.50762 0.631097,-0.654471 1.180385,-1.414124 1.647864,-2.278961 0.467479,-0.888211 0.806402,-1.834856 1.016768,-2.839936 h 9.045722 z M 24.441651,45.539459 c -0.467479,2.033534 -1.542681,3.739833 -3.225606,5.118897 -1.729673,1.379063 -3.576216,2.068595 -5.539629,2.068595 -1.986786,0 -3.529467,-0.689532 -4.628043,-2.068595 -1.0752019,-1.402437 -1.4024375,-3.108735 -0.981706,-5.118895 l 4.52286,-21.527417 h 21.562478 l 1.577742,-7.187492 H 16.16727 L 19.18251,2.4846288 H 12.030079 L 2.8791744,45.539461 c -0.8414625,4.043695 -0.1753047,7.444606 1.9984735,10.202733 2.1737781,2.781501 5.2708271,4.172251 9.2911481,4.172251 3.950199,0 7.619911,-1.414124 11.009135,-4.242373 3.435972,-2.828249 5.586376,-6.205786 6.451212,-10.132611 z m 28.294868,3.611276 c -0.07012,0.280488 -0.128557,0.537602 -0.175305,0.771341 -0.02337,0.233739 -0.03506,0.479166 -0.03506,0.73628 0.280488,0.116869 0.572663,0.198678 0.876524,0.245426 0.303861,0.02337 0.631097,0.03506 0.981706,0.03506 1.168698,0 2.278961,-0.420731 3.330789,-1.262194 1.051828,-0.841462 1.928352,-1.928351 2.629571,-3.260667 H 53.332556 Z M 62.588643,29.166 c -0.701219,0 -1.390751,0.11687 -2.068596,0.35061 -0.677845,0.233739 -1.308941,0.549288 -1.89329,0.946645 -0.560975,0.397357 -1.063516,0.876524 -1.507621,1.437499 -0.444105,0.560975 -0.783028,1.157011 -1.016767,1.788108 h 7.327736 l 0.525914,-2.489327 c 0.140244,-0.677845 0.163617,-1.273881 0.07012,-1.788108 C 63.7924,29.364677 63.55866,29.317937 63.32492,29.271183 63.091181,29.201061 62.845754,29.166 62.588641,29.166 Z M 43.129822,58.757434 C 42.615595,58.266581 42.113054,57.69392 41.622201,57.039449 40.360008,55.426646 39.541919,53.696973 39.167936,51.85043 38.817327,49.980513 38.887448,47.876857 39.378301,45.539461 l 3.015241,-14.339924 c 0.467479,-2.267274 1.273881,-4.335869 2.419205,-6.205786 1.145324,-1.869917 2.711379,-3.611277 4.698166,-5.22408 3.809955,-3.155485 7.97052,-4.733227 12.481694,-4.733227 2.267274,0 4.25406,0.38567 5.960359,1.157011 1.706299,0.771341 3.190546,1.963413 4.452739,3.576216 0.991352,1.371731 1.373451,1.884188 2.664632,3.75152 2.477639,3.108737 3.225606,6.860257 2.2439,11.254562 l -2.454266,11.640231 h -2.734753 l 2.173778,2.734753 c -0.467479,2.267274 -1.285568,4.324183 -2.454266,6.170726 -1.168698,1.823169 -2.699692,3.506094 -4.592983,5.048775 -1.916665,1.542681 -3.880077,2.699692 -5.890237,3.471033 -1.986787,0.794714 -4.113817,1.192071 -6.381091,1.192071 -4.511174,0 -7.982207,-1.530994 -10.413099,-4.592982 z M 62.728886,45.539461 c -0.467479,2.033534 -1.542681,3.739833 -3.225606,5.118897 -1.729673,1.379063 -3.576215,2.068595 -5.539628,2.068595 -1.986787,0 -3.529468,-0.689532 -4.628044,-2.068595 -1.075202,-1.402438 -1.402437,-3.108737 -0.981706,-5.118897 l 0.876523,-4.277435 h 21.527416 l 2.173778,-10.062489 c 0.794715,-3.926825 0.0935,-7.304362 -2.103656,-10.132611 -2.197152,-2.828249 -5.259141,-4.242374 -9.185966,-4.242374 -4.020321,0 -7.725093,1.414125 -11.114317,4.242374 -3.36585,2.804875 -5.481193,6.182412 -6.34603,10.132611 l -3.015241,14.339924 c -0.841463,4.043695 -0.175305,7.444606 1.998474,10.202733 2.173778,2.781501 5.270827,4.172251 9.291148,4.172251 3.950199,0 7.619911,-1.414124 11.009135,-4.242373 3.435972,-2.828249 5.586376,-6.205786 6.451213,-10.132611 z M 64.797482,35.512032 H 50.457558 l 0.911584,-4.312495 c 0.444105,-2.010161 1.495934,-3.704773 3.155485,-5.083836 1.682925,-1.402438 3.529467,-2.103657 5.539628,-2.103657 2.010161,0 3.564529,0.701219 4.663105,2.103657 1.098576,1.379063 1.437498,3.073675 1.016767,5.083836 z m 47.788768,13.638705 c -0.46748,2.267274 -1.29726,4.335869 -2.48933,6.205786 -1.19207,1.846543 -2.73475,3.541156 -4.62804,5.083837 -3.73983,3.061988 -7.806901,4.592982 -12.201206,4.592982 -4.511174,0 -7.982207,-1.530994 -10.413098,-4.592982 L 81.417077,58.757434 C 80.90285,58.266581 80.40031,57.69392 79.909457,57.039449 78.647263,55.426646 77.829174,53.696973 77.455191,51.85043 77.104582,49.980513 77.174704,47.876857 77.665557,45.539461 l 3.01524,-14.339924 c 0.467479,-2.267274 1.273881,-4.335869 2.419205,-6.205786 1.145324,-1.869917 2.711379,-3.611277 4.698166,-5.22408 3.809955,-3.155485 7.97052,-4.733227 12.481692,-4.733227 2.26727,0 4.25406,0.38567 5.96036,1.157011 1.7063,0.771341 3.19055,1.963413 4.45274,3.576216 1.72414,2.241372 2.61062,3.710992 2.66466,3.751522 2.45427,3.085363 3.09705,7.362797 1.92835,12.832304 h -10.30791 l -3.12043,-3.36585 c 0.16362,-0.677845 0.23374,-1.320629 0.21037,-1.928352 0,-0.607723 -0.0468,-1.180385 -0.14024,-1.717986 -0.18699,-0.04675 -0.3623,-0.08181 -0.52592,-0.105183 -0.16362,-0.04675 -0.33892,-0.07012 -0.52591,-0.07012 -0.79472,0 -1.566057,0.151931 -2.314024,0.455793 -0.724593,0.280487 -1.402437,0.677845 -2.033534,1.192072 -0.607723,0.490853 -1.133638,1.075201 -1.577743,1.753046 -0.420731,0.677845 -0.724593,1.414125 -0.911584,2.20884 l -3.015241,14.374984 c -0.07012,0.280488 -0.128557,0.537602 -0.175305,0.771341 -0.02337,0.233739 -0.03506,0.479166 -0.03506,0.73628 0.280487,0.116869 0.572662,0.198678 0.876523,0.245426 0.303861,0.02337 0.631097,0.03506 0.981706,0.03506 0.747967,0 1.484246,-0.186992 2.208839,-0.560975 0.747967,-0.373983 1.425812,-0.876523 2.033535,-1.50762 0.631097,-0.654471 1.180385,-1.414124 1.647864,-2.278961 0.467479,-0.888211 0.806402,-1.834856 1.016767,-2.839936 h 9.045717 z m -11.57013,-3.611278 c -0.46748,2.033534 -1.54268,3.739833 -3.225605,5.118897 -1.729673,1.379063 -3.576215,2.068595 -5.539628,2.068595 -1.986787,0 -3.529468,-0.689532 -4.628044,-2.068595 -1.075202,-1.402438 -1.402437,-3.108737 -0.981706,-5.118897 l 3.015241,-14.339924 c 0.444105,-2.010161 1.495933,-3.704773 3.155484,-5.083836 1.682925,-1.402438 3.529468,-2.103657 5.539628,-2.103657 2.01016,0 3.56453,0.701219 4.6631,2.103657 1.09858,1.379063 1.4375,3.073675 1.01677,5.083836 h 7.18749 c 0.79472,-3.926825 0.0935,-7.304362 -2.10365,-10.132611 -2.19715,-2.828249 -5.25914,-4.242374 -9.185967,-4.242374 -4.020321,0 -7.725094,1.414125 -11.114318,4.242374 -3.36585,2.804875 -5.481193,6.182412 -6.34603,10.132611 l -3.015241,14.339924 c -0.841462,4.043695 -0.175304,7.444606 1.998474,10.202733 2.173778,2.781501 5.270828,4.172251 9.291149,4.172251 3.973573,0 7.631597,-1.39075 10.974073,-4.172251 3.45935,-2.851623 5.62144,-6.252534 6.48627,-10.202733 z m 35.48236,-30.082285 c 1.0752,-0.280488 2.2439,-0.420732 3.50609,-0.420732 2.12703,0 3.9502,0.409044 5.46951,1.227133 1.51931,0.818089 2.83993,2.033535 3.96188,3.646338 0.33383,0.464365 2.49346,3.464094 2.69965,3.821638 2.08028,3.132111 2.66463,6.813509 1.75304,11.044196 l -6.41615,30.257589 h -10.34298 l -3.08536,-3.36585 6.48627,-30.467955 c 0.14025,-0.677845 0.16361,-1.273881 0.0701,-1.788108 -0.23374,-0.04675 -0.46748,-0.0935 -0.70122,-0.140244 -0.23374,-0.07012 -0.47917,-0.105183 -0.73628,-0.105183 -0.79471,0 -1.56605,0.151931 -2.31402,0.455793 -0.72459,0.280487 -1.40244,0.677845 -2.03354,1.192072 -0.60772,0.490853 -1.13363,1.075201 -1.57774,1.753046 -0.42073,0.677845 -0.72459,1.414125 -0.91158,2.20884 l -6.3811,30.257589 h -10.34297 l -3.08536,-3.36585 12.93756,-61.00602602 h 10.76371 l 2.59451,3.82164232 z m 6.907,44.457269 6.10061,-28.714908 c 0.81809,-3.926825 0.29217,-7.280988 -1.57775,-10.062489 -1.82317,-2.874997 -4.58129,-4.312496 -8.27438,-4.312496 -3.29573,0 -6.42784,1.227133 -9.39633,3.681399 l 3.78658,-18.0213222 h -7.15243 L 114.65551,59.914445 h 7.18749 l 6.10061,-28.714908 c 0.44411,-2.010161 1.49593,-3.704773 3.15548,-5.083836 1.68293,-1.402438 3.52947,-2.103657 5.53963,-2.103657 2.01016,0 3.56453,0.701219 4.66311,2.103657 1.09857,1.379063 1.43749,3.073675 1.01676,5.083836 l -6.1006,28.714908 z M 177.45035,29.166 c -1.05183,0 -2.03353,0.280488 -2.94512,0.841463 -0.91159,0.537601 -1.7063,1.297255 -2.38415,2.278961 1.19207,0.04675 2.29065,0.210364 3.29573,0.490853 1.00508,0.280487 1.94004,0.712906 2.80488,1.297255 l 0.59603,-2.874997 c 0.14025,-0.677845 0.16361,-1.273881 0.0701,-1.788108 -0.23374,-0.04675 -0.46748,-0.09349 -0.70122,-0.140244 -0.23374,-0.07012 -0.47917,-0.105183 -0.73628,-0.105183 z m -1.96342,17.460348 c -0.49085,-0.140244 -1.06351,-0.210366 -1.71798,-0.210366 -1.54268,0 -2.92174,0.38567 -4.13719,1.157011 -1.33232,0.818089 -2.10366,1.823169 -2.31402,3.015241 l -0.0701,0.140244 c 0.28049,0.07012 0.59604,0.128556 0.94665,0.175304 0.35061,0.02337 0.70122,0.03506 1.05183,0.03506 0.72459,0 1.42581,-0.0935 2.10365,-0.280487 0.70122,-0.210366 1.34401,-0.479167 1.92836,-0.806402 1.21544,-0.724593 1.92834,-1.682925 2.13871,-2.874997 z M 157.32537,32.987645 h -0.42073 c 0.60772,-2.874997 1.5193,-5.387698 2.73475,-7.538102 1.21545,-2.173778 2.81656,-4.067069 4.80335,-5.679872 3.80995,-3.155485 7.94714,-4.733227 12.41157,-4.733227 2.26727,0 4.25406,0.38567 5.96036,1.157011 1.7063,0.771341 3.19055,1.963413 4.45274,3.576216 0.93867,1.296485 1.68992,2.468639 2.66463,3.75152 2.47764,3.108737 3.22561,6.860257 2.2439,11.254562 l -6.41615,30.257589 h -10.34298 l -0.9817,-1.192071 c -1.94004,0.794714 -3.97358,1.192071 -6.10061,1.192071 -2.12703,0 -3.96188,-0.338922 -5.50456,-1.016767 -1.54269,-0.677845 -2.875,-1.717986 -3.99695,-3.120423 l -1.36738,-1.682925 c -0.28049,-0.257114 -0.56097,-0.525915 -0.84146,-0.806402 -0.28049,-0.303861 -0.54929,-0.61941 -0.8064,-0.946645 -1.0752,-1.472559 -1.77642,-3.050302 -2.10366,-4.733227 -0.32723,-1.706299 -0.2688,-3.622963 0.17531,-5.749994 0.86483,-4.020321 2.99186,-7.491354 6.38109,-10.413099 l 0.28049,-0.210365 H 159.99 Z m 24.36735,26.9268 6.1006,-28.714908 c 0.79472,-3.926825 0.0935,-7.304362 -2.10365,-10.132611 -2.19715,-2.828249 -5.25914,-4.242374 -9.18597,-4.242374 -3.92683,0 -7.61991,1.414125 -11.07925,4.242374 -3.43597,2.804875 -5.56301,6.182412 -6.3811,10.132611 h 7.1875 c 0.4441,-2.010161 1.49593,-3.704773 3.15548,-5.083836 1.68293,-1.402438 3.52947,-2.103657 5.53963,-2.103657 2.01016,0 3.56453,0.701219 4.6631,2.103657 1.09858,1.379063 1.4375,3.073675 1.01677,5.083836 l -1.36737,6.521334 c -1.94004,-2.430891 -4.56961,-3.646337 -7.88872,-3.646337 -3.66971,0 -7.02387,1.23882 -10.06249,3.716459 -2.96849,2.547762 -4.8384,5.609751 -5.60975,9.185966 -0.77134,3.669712 -0.19868,6.743388 1.71799,9.221027 1.96341,2.477639 4.76829,3.716459 8.41463,3.716459 3.3191,0 6.47458,-1.215446 9.46645,-3.646337 l -0.77134,3.646337 z m -4.45274,-12.937486 c -0.39735,1.823169 -1.48424,3.260667 -3.26067,4.312496 -1.65955,0.958332 -3.37753,1.437498 -5.15395,1.437498 -1.7998,0 -3.28405,-0.479166 -4.45274,-1.437498 -1.37907,-1.098577 -1.88161,-2.536075 -1.50762,-4.312496 0.37398,-1.729673 1.47256,-3.167171 3.29573,-4.312495 1.56605,-0.934959 3.27235,-1.402438 5.11889,-1.402438 1.79979,0 3.30741,0.467479 4.52286,1.402438 1.33232,1.12195 1.81149,2.559448 1.4375,4.312495 z m 50.20797,2.173778 c -0.46748,2.267274 -1.28557,4.324183 -2.45426,6.170726 -1.1687,1.823169 -2.6997,3.506094 -4.59299,5.048775 -1.91666,1.542681 -3.88007,2.699692 -5.89023,3.471033 -1.98679,0.794714 -4.11382,1.192071 -6.38109,1.192071 -4.51118,0 -7.98221,-1.530994 -10.4131,-4.592982 l -1.4375,-1.682926 c -0.51423,-0.490853 -1.01677,-1.063514 -1.50762,-1.717985 -1.26219,-1.612803 -2.08028,-3.342476 -2.45427,-5.189019 -0.35061,-1.869917 -0.28048,-3.973573 0.21037,-6.310969 l 9.50149,-44.87800102 h 10.76371 l 2.59453,3.82164232 -2.2439,10.5533417 h 18.16157 l 2.59453,3.821643 -2.2439,10.307915 h -21.52741 l -4.24237,19.984735 c -0.0701,0.280488 -0.12856,0.537602 -0.17531,0.771341 -0.0234,0.233739 -0.0351,0.479166 -0.0351,0.73628 0.28049,0.116869 0.57266,0.198678 0.87652,0.245426 0.30387,0.02337 0.6311,0.03506 0.98171,0.03506 0.74797,0 1.48425,-0.186992 2.20884,-0.560975 0.74797,-0.373983 1.42581,-0.876523 2.03353,-1.50762 0.6311,-0.654471 1.18039,-1.414124 1.64787,-2.278961 0.46748,-0.888211 0.8064,-1.834856 1.01676,-2.839936 h 9.04573 z m -11.57013,-3.611278 c -0.46748,2.033534 -1.54268,3.739833 -3.2256,5.118897 -1.72967,1.379063 -3.57622,2.068595 -5.53963,2.068595 -1.98679,0 -3.52947,-0.689532 -4.62805,-2.068595 -1.0752,-1.402438 -1.40243,-3.108737 -0.9817,-5.118897 l 4.52286,-21.527417 h 21.56248 l 1.57774,-7.187492 h -21.56248 l 3.01524,-14.3399232 h -7.15243 l -9.1509,43.0548322 c -0.84147,4.043695 -0.17531,7.444606 1.99847,10.202733 2.17378,2.781501 5.27083,4.172251 9.29115,4.172251 3.9502,0 7.61991,-1.414124 11.00913,-4.242373 3.43597,-2.828249 5.58638,-6.205786 6.45121,-10.132611 z m 35.48236,-30.082285 c 1.0752,-0.280488 2.2439,-0.420732 3.50609,-0.420732 2.12703,0 3.9502,0.409044 5.46951,1.227133 1.51931,0.818089 2.83994,2.033535 3.96189,3.646338 0.89357,1.234278 1.79114,2.4107 2.69964,3.821638 2.08028,3.132111 2.66463,6.813509 1.75304,11.044196 l -6.41615,30.257589 h -10.34297 l -3.08537,-3.36585 6.48628,-30.467955 c 0.14024,-0.677845 0.16361,-1.273881 0.0701,-1.788108 -0.23374,-0.04675 -0.46748,-0.0935 -0.70122,-0.140244 -0.23374,-0.07012 -0.47917,-0.105183 -0.73628,-0.105183 -0.79471,0 -1.56605,0.151931 -2.31402,0.455793 -0.72459,0.280487 -1.40244,0.677845 -2.03354,1.192072 -0.60772,0.490853 -1.13363,1.075201 -1.57774,1.753046 -0.42073,0.677845 -0.72459,1.414125 -0.91158,2.20884 l -6.38109,30.257589 h -10.34298 l -3.08536,-3.36585 12.93755,-61.00602602 h 10.76371 l 2.59451,3.82164232 z m 6.907,44.457269 6.10061,-28.714908 c 0.81809,-3.926825 0.29217,-7.280988 -1.57775,-10.062489 -1.82317,-2.874997 -4.58129,-4.312496 -8.27438,-4.312496 -3.29573,0 -6.42784,1.227133 -9.39633,3.681399 l 3.78658,-18.0213222 h -7.15243 L 229.51721,59.914445 h 7.1875 l 6.1006,-28.714908 c 0.44411,-2.010161 1.49593,-3.704773 3.15548,-5.083836 1.68293,-1.402438 3.52947,-2.103657 5.53963,-2.103657 2.01016,0 3.56453,0.701219 4.66311,2.103657 1.09857,1.379063 1.43749,3.073675 1.01676,5.083836 l -6.1006,28.714908 z m 35.41225,-28.714908 c 0.14025,-0.677845 0.16361,-1.273881 0.0701,-1.788108 -0.23374,-0.04675 -0.46748,-0.09349 -0.70122,-0.140244 -0.23374,-0.07012 -0.47917,-0.105183 -0.73628,-0.105183 -0.79471,0 -1.56605,0.151931 -2.31402,0.455793 -0.72459,0.280487 -1.40244,0.677845 -2.03354,1.192072 -0.60772,0.490853 -1.13363,1.075201 -1.57774,1.753046 -0.42073,0.677845 -0.7246,1.414125 -0.91159,2.20884 l -3.01524,14.374984 c -0.0701,0.280488 -0.12855,0.537602 -0.1753,0.771341 -0.0234,0.233739 -0.0351,0.479166 -0.0351,0.73628 0.28049,0.116869 0.57266,0.198678 0.87652,0.245426 0.30386,0.02337 0.6311,0.03506 0.98171,0.03506 0.74797,0 1.47256,-0.140244 2.17378,-0.420731 0.72459,-0.280487 1.37906,-0.666158 1.96341,-1.157011 0.60772,-0.490853 1.12195,-1.063515 1.54268,-1.717986 0.42073,-0.654471 0.71291,-1.355689 0.87652,-2.103656 z m -20.82619,27.557897 c -0.51423,-0.490853 -1.01677,-1.063514 -1.50762,-1.717985 -1.26219,-1.612803 -2.08028,-3.342476 -2.45427,-5.189019 -0.35061,-1.869917 -0.28048,-3.973573 0.21037,-6.310969 l 3.01524,-14.339924 c 0.46748,-2.267274 1.27388,-4.335869 2.4192,-6.205786 1.14533,-1.869917 2.71138,-3.611277 4.69817,-5.22408 3.80995,-3.155485 7.97052,-4.733227 12.48169,-4.733227 2.26727,0 4.25406,0.38567 5.96036,1.157011 1.7063,0.771341 3.19055,1.963413 4.45274,3.576216 0.99923,1.405468 1.77469,2.467768 2.66463,3.75152 2.47764,3.108737 3.22561,6.860257 2.2439,11.254562 l -3.01524,14.374984 c -0.46748,2.267274 -1.29726,4.335869 -2.48933,6.205786 -1.19207,1.846543 -2.73475,3.541156 -4.62804,5.083837 -3.73983,3.061988 -7.8069,4.592982 -12.20121,4.592982 -4.51117,0 -7.98221,-1.530994 -10.4131,-4.592982 z m 29.80179,-27.557897 c 0.79472,-3.926825 0.0935,-7.304362 -2.10365,-10.132611 -2.19715,-2.828249 -5.25914,-4.242374 -9.18597,-4.242374 -4.02032,0 -7.72509,1.414125 -11.11432,4.242374 -3.36585,2.804875 -5.48119,6.182412 -6.34603,10.132611 l -3.01524,14.339924 c -0.84146,4.043695 -0.1753,7.444606 1.99848,10.202733 2.17377,2.781501 5.27082,4.172251 9.29115,4.172251 3.97357,0 7.6316,-1.39075 10.97407,-4.172251 3.45935,-2.851623 5.62144,-6.252534 6.48627,-10.202733 z M 292.4523,45.539459 c -0.46748,2.033534 -1.54268,3.739833 -3.22561,5.118897 -1.72967,1.379063 -3.57621,2.068595 -5.53962,2.068595 -1.98679,0 -3.52947,-0.689532 -4.62805,-2.068595 -1.0752,-1.402438 -1.40243,-3.108737 -0.9817,-5.118897 l 3.01524,-14.339924 c 0.4441,-2.010161 1.49593,-3.704773 3.15548,-5.083836 1.68293,-1.402438 3.52947,-2.103657 5.53963,-2.103657 2.01016,0 3.56453,0.701219 4.6631,2.103657 1.09858,1.379063 1.4375,3.073675 1.01677,5.083836 z m 11.50068,16.128031 6.45121,-30.467955 c 0.46748,-2.267274 1.27388,-4.335869 2.4192,-6.205786 1.14533,-1.869917 2.71138,-3.611277 4.69817,-5.22408 3.80995,-3.155485 7.97052,-4.733227 12.48169,-4.733227 2.26727,0 4.25406,0.38567 5.96036,1.157011 1.7063,0.771341 3.19055,1.963413 4.45274,3.576216 0.84985,1.154833 1.46624,2.091804 2.66463,3.75152 2.47764,3.108737 3.22561,6.860257 2.2439,11.254562 l -6.41615,30.257589 h -10.34298 l -3.08536,-3.36585 6.48628,-30.467955 c 0.14024,-0.677845 0.16361,-1.273881 0.0701,-1.788108 -0.23374,-0.04675 -0.46748,-0.09349 -0.70122,-0.140244 -0.23374,-0.07012 -0.47917,-0.105183 -0.73628,-0.105183 -0.79471,0 -1.56605,0.151931 -2.31402,0.455793 -0.72459,0.280487 -1.40244,0.677845 -2.03354,1.192072 -0.60772,0.490853 -1.13363,1.075201 -1.57774,1.753046 -0.42073,0.677845 -0.72459,1.414125 -0.91158,2.20884 l -6.3811,30.257589 h -10.34297 z m 30.88868,-1.753047 6.10061,-28.714908 c 0.79471,-3.926825 0.0935,-7.304362 -2.10366,-10.132611 -2.19715,-2.828249 -5.25914,-4.242374 -9.18597,-4.242374 -4.02032,0 -7.72509,1.414125 -11.11431,4.242374 -3.36585,2.804875 -5.4812,6.182412 -6.34603,10.132611 l -6.10061,28.714908 h 7.18749 l 6.10061,-28.714908 c 0.44411,-2.010161 1.49593,-3.704773 3.15548,-5.083836 1.68293,-1.402438 3.52947,-2.103657 5.53963,-2.103657 2.01016,0 3.56453,0.701219 4.66311,2.103657 1.09857,1.379063 1.43749,3.073675 1.01676,5.083836 l -6.1006,28.714908 z"
     id="text869-7-7-4"
     aria-label="techathon" /></svg>
